<svg xmlns="http://www.w3.org/2000/svg" viewBox="0 0 256 256"><defs><linearGradient id="linear-gradient" x1="127.08" x2="128.92" y1="246.29" y2="9.4" gradientUnits="userSpaceOnUse"><stop offset="0" stop-color="#2a394c"/><stop offset="1" stop-color="#39536b"/></linearGradient><linearGradient id="linear-gradient-2" x1="23.93" x2="231.93" y1="113.06" y2="113.07" gradientUnits="userSpaceOnUse"><stop offset="0" stop-color="#83ffca"/><stop offset="1" stop-color="#fff"/></linearGradient><linearGradient id="linear-gradient-3" x1="165" x2="165" y1="161.68" y2="63.67" gradientUnits="userSpaceOnUse"><stop offset="0" stop-color="#fefefe"/><stop offset="1" stop-color="#447d8f"/></linearGradient><style>.cls-8{fill:#fefefe}</style></defs><circle cx="128" cy="128" r="128" style="fill:#eceaec"/><circle cx="128" cy="128" r="124" class="cls-8"/><circle cx="128" cy="128" r="119" style="fill:url(#linear-gradient)"/><path d="M231.08 142.14a104.4 104.4 0 0 1-28.79 59.23c-1.79-2.23-5.97-6.01-8.21-8.21 18.07-19.16 26.95-41.66 26.23-68.11-.79-24.24-11.04-47.19-28.56-63.91-13.14-12.45-27.31-19.59-44.8-23.64-6.35-1.09-11.82-1.91-18.35-1.91a92.2 92.2 0 0 0-66.16 27.35C45.16 80.31 35.5 103.9 35.62 128.45c-.1 24.57 9.65 48.15 27.05 65.44l-8.5 8.11c-1.59-2.1-4.56-5.14-6.42-7.38-4.25-5.16-8-10.72-11.19-16.61a104.6 104.6 0 0 1-8.36-78.99c7.81-26.74 25.93-49.23 50.35-62.48a103.76 103.76 0 0 1 56.39-12.3c3.17.19 9.56.79 12.55 1.68 3.48.45 8.94 1.96 12.32 3.04 20.07 6.5 37.72 18.97 50.6 35.73 16.91 22.02 24.35 49.91 20.67 77.46Z" style="fill:url(#linear-gradient-2)"/><path id="Title" d="M89.19 216.65c.52 0 .95-.04 1.29-.11.34-.08.61-.18.82-.31s.35-.29.43-.47.12-.38.12-.61c0-.47-.25-.87-.76-1.18s-1.37-.65-2.6-1.01c-.54-.17-1.07-.36-1.61-.57-.54-.22-1.02-.49-1.44-.82-.43-.33-.77-.72-1.04-1.19s-.4-1.03-.4-1.7.14-1.27.43-1.81c.28-.54.69-.99 1.21-1.37q.78-.57 1.89-.87c1.11-.3 1.58-.3 2.51-.3 1.1 0 2.06.1 2.86.31s1.47.44 1.99.69l-1.07 2.57c-.46-.21-.97-.39-1.53-.55s-1.23-.24-2.02-.24c-.88 0-1.52.11-1.91.32-.39.22-.58.55-.58.99 0 .26.07.49.21.67s.34.34.6.49.56.28.9.4.71.24 1.12.37c.85.28 1.59.55 2.22.83.63.27 1.16.59 1.57.95s.73.79.94 1.28.31 1.08.31 1.78c0 1.35-.54 2.4-1.61 3.15s-2.69 1.12-4.85 1.12c-.73 0-1.38-.04-1.96-.12s-1.1-.17-1.55-.28-.84-.23-1.16-.36c-.32-.12-.6-.24-.82-.36l1.04-2.59c.49.24 1.09.45 1.81.64s1.6.28 2.64.28Zm21.61-11.99v2.78h-4.95v11.7h-3.69v-11.7h-4.95v-2.78zm12.04 14.48c-.18-.5-.38-1.02-.59-1.55s-.42-1.06-.63-1.58h-6.41c-.21.53-.42 1.06-.62 1.59-.21.53-.4 1.05-.58 1.55h-3.83c.62-1.56 1.2-3 1.76-4.33a133 133 0 0 1 3.2-7.07c.51-1.05 1.05-2.08 1.6-3.08h3.5a107 107 0 0 1 3.17 6.41c.53 1.17 1.07 2.42 1.63 3.74.55 1.32 1.14 2.77 1.76 4.33h-3.95Zm-4.44-11.2c-.08.21-.2.5-.36.86s-.34.78-.54 1.25-.43 1-.68 1.57-.5 1.17-.76 1.79h4.69a95 95 0 0 0-1.4-3.37c-.21-.47-.4-.89-.56-1.25s-.29-.65-.39-.85m18.01 11.49c-2.67 0-4.7-.66-6.09-1.96s-2.09-3.17-2.09-5.58c0-1.2.21-2.27.64-3.21s1.01-1.74 1.75-2.38c.74-.65 1.62-1.14 2.65-1.47s2.14-.5 3.34-.5c.7 0 1.33.05 1.89.14.57.09 1.06.2 1.49.31.43.12.78.24 1.06.37.29.12.49.22.62.29l-1.06 2.63c-.5-.24-1.09-.44-1.76-.61s-1.43-.25-2.28-.25c-.57 0-1.12.08-1.67.25-.54.17-1.03.44-1.44.8-.42.37-.75.85-1.01 1.43-.25.58-.38 1.29-.38 2.13 0 .67.08 1.29.25 1.87s.43 1.08.8 1.49.86.75 1.46.99 1.33.37 2.18.37c.54 0 1.02-.03 1.44-.08s.8-.12 1.14-.2c.33-.08.62-.16.88-.26s.48-.19.69-.27l1.02 2.61c-.52.28-1.26.53-2.2.75-.95.22-2.04.33-3.29.33Zm8.47-.29v-14.48h11.08v2.74h-7.38v2.84h6.56v2.67h-6.56v3.49h7.93v2.74h-11.62Zm19.76-14.65c2.46 0 4.35.39 5.66 1.16s1.96 1.98 1.96 3.61c0 1.02-.26 1.84-.79 2.48-.53.63-1.29 1.13-2.28 1.49.33.36.68.78 1.04 1.24s.72.95 1.08 1.46c.35.51.7 1.04 1.03 1.59s.64 1.09.92 1.62h-4.13c-.3-.47-.61-.95-.92-1.44s-.62-.96-.95-1.42c-.32-.46-.65-.9-.96-1.31-.32-.41-.63-.78-.95-1.12h-1.82v5.29h-3.69v-14.27c.8-.14 1.64-.24 2.5-.29.86-.06 1.63-.08 2.31-.08Zm.21 2.78c-.27 0-.51 0-.72.02-.21.01-.42.03-.6.04v3.93h1.04c1.39 0 2.38-.15 2.98-.46s.9-.83.9-1.57-.3-1.22-.91-1.52-1.5-.45-2.69-.45Z" class="cls-8"/><g id="Ticks"><path d="m63.655 189.512 9.9-9.9 2.828 2.829-9.9 9.9zm125.861 2.837-9.9-9.9 2.828-2.828 9.9 9.9z" style="fill:#3fabfa"/><path d="M217 130h-14v-4h14zm-24.655-63.52-9.9 9.9-2.828-2.828 9.9-9.9zM130 39v14h-4V39zM66.484 63.66l9.9 9.899-2.828 2.828-9.9-9.9zM39 126h14v4H39z" class="cls-8"/></g><path d="M202 128a73.87 73.87 0 0 1-16.62 46.75L128 128V54c40.87 0 74 33.13 74 74" style="fill:url(#linear-gradient-3)"/><path d="m135.5 139.82 5.44-6.48 33.8 30.58 12.93 12.66-15.37-9.95z" style="fill:#36d4b9"/><circle cx="128" cy="128" r="14" style="fill:#1c2c3e"/></svg>